<?xml version="1.0" encoding="UTF-8"?>
<svg width="16px" height="16px" viewBox="0 0 16 16" version="1.1" xmlns="http://www.w3.org/2000/svg" xmlns:xlink="http://www.w3.org/1999/xlink">
    <!-- Generator: Sketch 50.2 (55047) - http://www.bohemiancoding.com/sketch -->
    <title>Icon</title>
    <desc>Created with Sketch.</desc>
    <defs></defs>
    <g id="Page-1" stroke="none" stroke-width="1" fill="none" fill-rule="evenodd">
        <path d="M16,14.5512295 L11.8569672,10.4081967 C12.6446721,9.32622951 13.1147541,7.99836066 13.1147541,6.55737705 C13.1147541,2.93565574 10.1790984,1.77635684e-15 6.55737705,1.77635684e-15 C2.93565574,1.77635684e-15 0,2.93565574 0,6.55737705 C0,10.1790984 2.93565574,13.1147541 6.55737705,13.1147541 C7.99836066,13.1147541 9.32622951,12.6446721 10.4081967,11.8569672 L14.5512295,16 L16,14.5512295 L16,14.5512295 Z M6.55737705,11.0655738 C4.07172131,11.0655738 2.04918033,9.04303279 2.04918033,6.55737705 C2.04918033,4.07172131 4.07172131,2.04918033 6.55737705,2.04918033 C9.04303279,2.04918033 11.0655738,4.07172131 11.0655738,6.55737705 C11.0655738,9.04303279 9.04303279,11.0655738 6.55737705,11.0655738 L6.55737705,11.0655738 Z" id="Icon" fill="#999999"></path>
    </g>
</svg>